# xmcd CD database file generated by Grip 3.0.7
# 
# Track frame offsets:
#       150
#       21559
#       42258
#       62733
#       78371
#       94910
#       109435
#       126487
#       143430
#       164732
#       179705
#       194222
#       212303
#       231859
#       251241
# 
# Disc length: 3622 seconds
# 
# Revision: 7
# Processed by: cddbd v1.4PL0 Copyright (c) Steve Scherf et al.
# Submitted via: Grip 3.0.7
# 
DISCID=e90e240f
DTITLE=Fini Høstrup Trio - Stories
DYEAR=2000
DGENRE=Jazz
TTITLE0=This Time Will Show
TTITLE1=Lights Out
TTITLE2=Suddenly Sunday
TTITLE3=Waltz in F
TTITLE4=Spring Tide Now
TTITLE5=Lumpy Sea
TTITLE6=Tripping
TTITLE7=Another Song
TTITLE8=Haziness
TTITLE9=Bleak Night
TTITLE10=Years Ago
TTITLE11=Pash
TTITLE12=Day Four
TTITLE13=Glass Room
TTITLE14=Plug Out
EXTD=YEAR: 2000
EXTT0=
EXTT1=
EXTT2=
EXTT3=
EXTT4=
EXTT5=
EXTT6=
EXTT7=
EXTT8=
EXTT9=
EXTT10=
EXTT11=
EXTT12=
EXTT13=
EXTT14=
PLAYORDER=
